<svg viewBox="0 0 128 128" xmlns="http://www.w3.org/2000/svg"><g fill="none"><path d="M73.218 54.976l-.023-.013-.053-.017a.128.128 0 00.076.03zM73.556 57.387l-.026.007z" fill="currentColor"/><path d="M73.228 54.972a.047.047 0 01-.01-.002v.007a.02.02 0 00.01-.005z" fill="currentColor"/><path d="M73.218 54.976h.004v-.002zM73.535 57.383l.04-.022.014-.009.013-.014a.223.223 0 00-.067.045zM73.286 55.029l-.038-.037-.026-.014a.108.108 0 00.064.05zM63.69 78.425a.2.2 0 00-.077.06l.024-.015c.016-.015.04-.033.053-.045zM69.262 77.329c0-.035-.016-.028-.012.094 0-.01.004-.02.006-.03l.006-.064zM68.684 78.425a.2.2 0 00-.077.06l.024-.015c.016-.015.04-.033.053-.045zM59.766 78.686a.166.166 0 00-.081-.038c.024.011.049.023.065.032zM58.883 77.84a.261.261 0 00-.032-.101.839.839 0 01.031.1z" fill="currentColor"/><path d="M64.815 62.716c-1.213.519-2.588 1.107-4.371 1.107a8.274 8.274 0 01-2.207-.304l1.233 12.66a2.115 2.115 0 002.109 1.942s1.748.09 2.332.09c.627 0 2.51-.09 2.51-.09a2.115 2.115 0 002.108-1.941l1.321-13.99c-.59-.202-1.186-.336-1.857-.336-1.162 0-2.097.4-3.178.862z" fill="#000"/><path d="M54.42 57.314l.02.02.014.008a.21.21 0 00-.034-.028z" fill="currentColor"/><path d="M75.553 56.146l-.186-.937c-.167-.84-.545-1.634-1.408-1.938-.276-.097-.59-.139-.802-.34-.212-.201-.275-.514-.324-.803-.09-.532-.176-1.064-.269-1.595-.08-.456-.144-.969-.353-1.387-.273-.562-.838-.891-1.4-1.109a8.061 8.061 0 00-.88-.272c-1.405-.37-2.881-.507-4.326-.584a36.315 36.315 0 00-5.202.086c-1.288.117-2.644.259-3.868.704-.447.163-.908.359-1.248.704-.417.425-.553 1.081-.249 1.61.217.377.584.642.973.818a7.888 7.888 0 001.579.514c1.512.334 3.078.465 4.622.521a35.2 35.2 0 005.13-.167 29.21 29.21 0 001.263-.167c.494-.076.811-.722.666-1.173-.175-.538-.643-.747-1.173-.666a21 21 0 01-.234.035l-.056.008a28.578 28.578 0 01-1.654.162 37.493 37.493 0 01-4.972.01 31.331 31.331 0 01-1.626-.152l-.16-.02-.036-.005-.166-.024c-.34-.051-.681-.11-1.018-.182a.153.153 0 010-.298h.006a16.522 16.522 0 011.177-.208h.003c.185-.012.37-.045.554-.067 1.6-.166 3.21-.223 4.817-.17a32.42 32.42 0 012.837.204c.063.008.127.017.191.024l.13.019c.375.056.75.124 1.121.204.551.12 1.26.159 1.504.763.079.191.114.404.157.605l.055.257a4052.735 4052.735 0 00.393 1.83.333.333 0 01-.28.4h-.003l-.08.01-.078.01a48.27 48.27 0 01-2.223.236 51.644 51.644 0 01-4.446.18 52.133 52.133 0 01-6.606-.428l-.18-.024-.408-.06c-.457-.068-.911-.153-1.368-.227-.551-.09-1.079-.045-1.578.227-.41.224-.741.568-.95.985-.215.445-.28.93-.376 1.408-.096.478-.246.992-.189 1.483.122 1.06.863 1.92 1.928 2.113a55.803 55.803 0 0015.949.528.681.681 0 01.752.747l-.101.98a401093.072 401093.072 0 01-1.43 13.93c-.059.576-.067 1.17-.177 1.74-.172.895-.778 1.445-1.663 1.646-.81.185-1.638.282-2.469.29-.92.004-1.842-.037-2.763-.032-.983.006-2.188-.085-2.947-.817-.667-.643-.759-1.65-.85-2.52l-.36-3.456-.667-6.406-.432-4.145c-.007-.068-.015-.136-.021-.205-.052-.495-.402-.979-.954-.954-.472.021-1.009.423-.953.954l.32 3.073.662 6.356.564 5.417c.036.346.07.693.109 1.04.207 1.89 1.65 2.909 3.439 3.196 1.044.168 2.114.202 3.173.22 1.359.021 2.731.073 4.067-.173 1.98-.363 3.466-1.685 3.678-3.736l.181-1.776.603-5.878.657-6.402.3-2.933a.68.68 0 01.55-.6c.565-.11 1.107-.298 1.51-.729.64-.686.768-1.58.542-2.482zm-21.298.633c.008-.004-.008.07-.014.104-.002-.052.001-.098.014-.104zm.055.425c.004-.003.018.015.032.037-.021-.02-.035-.035-.033-.037zm.054.071c.02.033.03.054 0 0zm.108.088h.003c0 .003.005.006.007.01a.07.07 0 00-.01-.01zm19.002-.132c-.203.194-.51.284-.813.329-3.396.504-6.841.759-10.275.646-2.457-.084-4.888-.357-7.32-.7-.24-.034-.498-.077-.661-.253-.31-.332-.158-1-.077-1.4.073-.366.214-.855.65-.908.681-.08 1.472.208 2.146.31a40.63 40.63 0 002.443.297c3.488.318 7.034.269 10.506-.196a43.838 43.838 0 001.892-.297c.56-.1 1.18-.288 1.519.291.232.395.263.924.227 1.37a.764.764 0 01-.237.511z" fill="currentColor"/></g><g shape-rendering="geometricPrecision" fill="currentColor" transform="matrix(.6 0 0 .6 4 4)"><rect x="49.248" y=".767" width="4.545" height="4.545" rx="4"/><rect x="55.307" y=".767" width="4.545" height="4.545" rx="4"/><rect x="61.367" y=".767" width="4.545" height="4.545" rx="4"/><rect x="91.668" y=".767" width="4.545" height="4.545" rx="4"/><rect x="109.847" y=".767" width="4.545" height="4.545" rx="4"/><rect x="121.968" y=".767" width="4.545" height="4.545" rx="4"/><rect x="128.028" y=".767" width="4.545" height="4.545" rx="4"/><rect x="140.148" y=".767" width="4.545" height="4.545" rx="4"/><rect x="146.208" y=".767" width="4.545" height="4.545" rx="4"/><rect x="49.248" y="6.827" width="4.545" height="4.545" rx="4"/><rect x="55.307" y="6.827" width="4.545" height="4.545" rx="4"/><rect x="61.367" y="6.827" width="4.545" height="4.545" rx="4"/><rect x="67.427" y="6.827" width="4.545" height="4.545" rx="4"/><rect x="73.488" y="6.827" width="4.545" height="4.545" rx="4"/><rect x="79.548" y="6.827" width="4.545" height="4.545" rx="4"/><rect x="85.607" y="6.827" width="4.545" height="4.545" rx="4"/><rect x="103.787" y="6.827" width="4.545" height="4.545" rx="4"/><rect x="109.847" y="6.827" width="4.545" height="4.545" rx="4"/><rect x="146.208" y="6.827" width="4.545" height="4.545" rx="4"/><rect x="49.248" y="12.887" width="4.545" height="4.545" rx="4"/><rect x="55.307" y="12.887" width="4.545" height="4.545" rx="4"/><rect x="61.367" y="12.887" width="4.545" height="4.545" rx="4"/><rect x="79.548" y="12.887" width="4.545" height="4.545" rx="4"/><rect x="85.607" y="12.887" width="4.545" height="4.545" rx="4"/><rect x="91.668" y="12.887" width="4.545" height="4.545" rx="4"/><rect x="97.728" y="12.887" width="4.545" height="4.545" rx="4"/><rect x="128.028" y="12.887" width="4.545" height="4.545" rx="4"/><rect x="134.087" y="12.887" width="4.545" height="4.545" rx="4"/><rect x="140.148" y="12.887" width="4.545" height="4.545" rx="4"/><rect x="146.208" y="12.887" width="4.545" height="4.545" rx="4"/><rect x="55.307" y="18.948" width="4.545" height="4.545" rx="4"/><rect x="61.367" y="18.948" width="4.545" height="4.545" rx="4"/><rect x="79.548" y="18.948" width="4.545" height="4.545" rx="4"/><rect x="109.847" y="18.948" width="4.545" height="4.545" rx="4"/><rect x="134.087" y="18.948" width="4.545" height="4.545" rx="4"/><rect x="140.148" y="18.948" width="4.545" height="4.545" rx="4"/><rect x="146.208" y="18.948" width="4.545" height="4.545" rx="4"/><rect x="67.427" y="25.008" width="4.545" height="4.545" rx="4"/><rect x="73.488" y="25.008" width="4.545" height="4.545" rx="4"/><rect x="103.787" y="25.008" width="4.545" height="4.545" rx="4"/><rect x="109.847" y="25.008" width="4.545" height="4.545" rx="4"/><rect x="115.907" y="25.008" width="4.545" height="4.545" rx="4"/><rect x="121.968" y="25.008" width="4.545" height="4.545" rx="4"/><rect x="49.248" y="31.067" width="4.545" height="4.545" rx="4"/><rect x="61.367" y="31.067" width="4.545" height="4.545" rx="4"/><rect x="67.427" y="31.067" width="4.545" height="4.545" rx="4"/><rect x="73.488" y="31.067" width="4.545" height="4.545" rx="4"/><rect x="79.548" y="31.067" width="4.545" height="4.545" rx="4"/><rect x="85.607" y="31.067" width="4.545" height="4.545" rx="4"/><rect x="91.668" y="31.067" width="4.545" height="4.545" rx="4"/><rect x="97.728" y="31.067" width="4.545" height="4.545" rx="4"/><rect x="103.787" y="31.067" width="4.545" height="4.545" rx="4"/><rect x="121.968" y="31.067" width="4.545" height="4.545" rx="4"/><rect x="128.028" y="31.067" width="4.545" height="4.545" rx="4"/><rect x="134.087" y="31.067" width="4.545" height="4.545" rx="4"/><rect x="140.148" y="31.067" width="4.545" height="4.545" rx="4"/><rect x="146.208" y="31.067" width="4.545" height="4.545" rx="4"/><rect x="49.248" y="37.127" width="4.545" height="4.545" rx="4"/><rect x="61.367" y="37.127" width="4.545" height="4.545" rx="4"/><rect x="73.488" y="37.127" width="4.545" height="4.545" rx="4"/><rect x="85.607" y="37.127" width="4.545" height="4.545" rx="4"/><rect x="97.728" y="37.127" width="4.545" height="4.545" rx="4"/><rect x="109.847" y="37.127" width="4.545" height="4.545" rx="4"/><rect x="121.968" y="37.127" width="4.545" height="4.545" rx="4"/><rect x="134.087" y="37.127" width="4.545" height="4.545" rx="4"/><rect x="146.208" y="37.127" width="4.545" height="4.545" rx="4"/><rect x="49.248" y="43.188" width="4.545" height="4.545" rx="4"/><rect x="67.427" y="43.188" width="4.545" height="4.545" rx="4"/><rect x="73.488" y="43.188" width="4.545" height="4.545" rx="4"/><rect x="85.607" y="43.188" width="4.545" height="4.545" rx="4"/><rect x="103.787" y="43.188" width="4.545" height="4.545" rx="4"/><rect x="128.028" y="43.188" width="4.545" height="4.545" rx="4"/><rect x="134.087" y="43.188" width="4.545" height="4.545" rx="4"/><rect x="140.148" y="43.188" width="4.545" height="4.545" rx="4"/><rect x="12.887" y="49.248" width="4.545" height="4.545" rx="4"/><rect x="18.948" y="49.248" width="4.545" height="4.545" rx="4"/><rect x="25.008" y="49.248" width="4.545" height="4.545" rx="4"/><rect x="37.127" y="49.248" width="4.545" height="4.545" rx="4"/><rect x="49.248" y="49.248" width="4.545" height="4.545" rx="4"/><rect x="55.307" y="49.248" width="4.545" height="4.545" rx="4"/><rect x="61.367" y="49.248" width="4.545" height="4.545" rx="4"/><rect x="79.548" y="49.248" width="4.545" height="4.545" rx="4"/><rect x="91.668" y="49.248" width="4.545" height="4.545" rx="4"/><rect x="103.787" y="49.248" width="4.545" height="4.545" rx="4"/><rect x="121.968" y="49.248" width="4.545" height="4.545" rx="4"/><rect x="140.148" y="49.248" width="4.545" height="4.545" rx="4"/><rect x="146.208" y="49.248" width="4.545" height="4.545" rx="4"/><rect x="152.268" y="49.248" width="4.545" height="4.545" rx="4"/><rect x="158.327" y="49.248" width="4.545" height="4.545" rx="4"/><rect x="164.387" y="49.248" width="4.545" height="4.545" rx="4"/><rect x="182.567" y="49.248" width="4.545" height="4.545" rx="4"/><rect x="188.627" y="49.248" width="4.545" height="4.545" rx="4"/><rect x="194.688" y="49.248" width="4.545" height="4.545" rx="4"/><rect x=".767" y="55.307" width="4.545" height="4.545" rx="4"/><rect x="31.067" y="55.307" width="4.545" height="4.545" rx="4"/><rect x="55.307" y="55.307" width="4.545" height="4.545" rx="4"/><rect x="61.367" y="55.307" width="4.545" height="4.545" rx="4"/><rect x="73.488" y="55.307" width="4.545" height="4.545" rx="4"/><rect x="79.548" y="55.307" width="4.545" height="4.545" rx="4"/><rect x="91.668" y="55.307" width="4.545" height="4.545" rx="4"/><rect x="97.728" y="55.307" width="4.545" height="4.545" rx="4"/><rect x="103.787" y="55.307" width="4.545" height="4.545" rx="4"/><rect x="109.847" y="55.307" width="4.545" height="4.545" rx="4"/><rect x="121.968" y="55.307" width="4.545" height="4.545" rx="4"/><rect x="128.028" y="55.307" width="4.545" height="4.545" rx="4"/><rect x="140.148" y="55.307" width="4.545" height="4.545" rx="4"/><rect x="152.268" y="55.307" width="4.545" height="4.545" rx="4"/><rect x="158.327" y="55.307" width="4.545" height="4.545" rx="4"/><rect x="176.508" y="55.307" width="4.545" height="4.545" rx="4"/><rect x="182.567" y="55.307" width="4.545" height="4.545" rx="4"/><rect x="188.627" y="55.307" width="4.545" height="4.545" rx="4"/><rect x="194.688" y="55.307" width="4.545" height="4.545" rx="4"/><rect x="6.827" y="61.367" width="4.545" height="4.545" rx="4"/><rect x="12.887" y="61.367" width="4.545" height="4.545" rx="4"/><rect x="25.008" y="61.367" width="4.545" height="4.545" rx="4"/><rect x="31.067" y="61.367" width="4.545" height="4.545" rx="4"/><rect x="37.127" y="61.367" width="4.545" height="4.545" rx="4"/><rect x="61.367" y="61.367" width="4.545" height="4.545" rx="4"/><rect x="79.548" y="61.367" width="4.545" height="4.545" rx="4"/><rect x="85.607" y="61.367" width="4.545" height="4.545" rx="4"/><rect x="91.668" y="61.367" width="4.545" height="4.545" rx="4"/><rect x="103.787" y="61.367" width="4.545" height="4.545" rx="4"/><rect x="109.847" y="61.367" width="4.545" height="4.545" rx="4"/><rect x="121.968" y="61.367" width="4.545" height="4.545" rx="4"/><rect x="128.028" y="61.367" width="4.545" height="4.545" rx="4"/><rect x="152.268" y="61.367" width="4.545" height="4.545" rx="4"/><rect x="158.327" y="61.367" width="4.545" height="4.545" rx="4"/><rect x="164.387" y="61.367" width="4.545" height="4.545" rx="4"/><rect x="188.627" y="61.367" width="4.545" height="4.545" rx="4"/><rect x=".767" y="67.427" width="4.545" height="4.545" rx="4"/><rect x="12.887" y="67.427" width="4.545" height="4.545" rx="4"/><rect x="31.067" y="67.427" width="4.545" height="4.545" rx="4"/><rect x="43.188" y="67.427" width="4.545" height="4.545" rx="4"/><rect x="49.248" y="67.427" width="4.545" height="4.545" rx="4"/><rect x="121.968" y="67.427" width="4.545" height="4.545" rx="4"/><rect x="128.028" y="67.427" width="4.545" height="4.545" rx="4"/><rect x="134.087" y="67.427" width="4.545" height="4.545" rx="4"/><rect x="140.148" y="67.427" width="4.545" height="4.545" rx="4"/><rect x="152.268" y="67.427" width="4.545" height="4.545" rx="4"/><rect x="176.508" y="67.427" width="4.545" height="4.545" rx="4"/><rect x="182.567" y="67.427" width="4.545" height="4.545" rx="4"/><rect x="194.688" y="67.427" width="4.545" height="4.545" rx="4"/><rect x="18.948" y="73.488" width="4.545" height="4.545" rx="4"/><rect x="25.008" y="73.488" width="4.545" height="4.545" rx="4"/><rect x="37.127" y="73.488" width="4.545" height="4.545" rx="4"/><rect x="49.248" y="73.488" width="4.545" height="4.545" rx="4"/><rect x="61.367" y="73.488" width="4.545" height="4.545" rx="4"/><rect x="67.427" y="73.488" width="4.545" height="4.545" rx="4"/><rect x="128.028" y="73.488" width="4.545" height="4.545" rx="4"/><rect x="140.148" y="73.488" width="4.545" height="4.545" rx="4"/><rect x="146.208" y="73.488" width="4.545" height="4.545" rx="4"/><rect x="152.268" y="73.488" width="4.545" height="4.545" rx="4"/><rect x="170.447" y="73.488" width="4.545" height="4.545" rx="4"/><rect x="18.948" y="79.548" width="4.545" height="4.545" rx="4"/><rect x="25.008" y="79.548" width="4.545" height="4.545" rx="4"/><rect x="31.067" y="79.548" width="4.545" height="4.545" rx="4"/><rect x="43.188" y="79.548" width="4.545" height="4.545" rx="4"/><rect x="49.248" y="79.548" width="4.545" height="4.545" rx="4"/><rect x="55.307" y="79.548" width="4.545" height="4.545" rx="4"/><rect x="67.427" y="79.548" width="4.545" height="4.545" rx="4"/><rect x="121.968" y="79.548" width="4.545" height="4.545" rx="4"/><rect x="134.087" y="79.548" width="4.545" height="4.545" rx="4"/><rect x="140.148" y="79.548" width="4.545" height="4.545" rx="4"/><rect x="158.327" y="79.548" width="4.545" height="4.545" rx="4"/><rect x="182.567" y="79.548" width="4.545" height="4.545" rx="4"/><rect x="194.688" y="79.548" width="4.545" height="4.545" rx="4"/><rect x="6.827" y="85.607" width="4.545" height="4.545" rx="4"/><rect x="25.008" y="85.607" width="4.545" height="4.545" rx="4"/><rect x="37.127" y="85.607" width="4.545" height="4.545" rx="4"/><rect x="73.488" y="85.607" width="4.545" height="4.545" rx="4"/><rect x="134.087" y="85.607" width="4.545" height="4.545" rx="4"/><rect x="152.268" y="85.607" width="4.545" height="4.545" rx="4"/><rect x="158.327" y="85.607" width="4.545" height="4.545" rx="4"/><rect x="188.627" y="85.607" width="4.545" height="4.545" rx="4"/><rect x=".767" y="91.668" width="4.545" height="4.545" rx="4"/><rect x="6.827" y="91.668" width="4.545" height="4.545" rx="4"/><rect x="12.887" y="91.668" width="4.545" height="4.545" rx="4"/><rect x="43.188" y="91.668" width="4.545" height="4.545" rx="4"/><rect x="49.248" y="91.668" width="4.545" height="4.545" rx="4"/><rect x="55.307" y="91.668" width="4.545" height="4.545" rx="4"/><rect x="61.367" y="91.668" width="4.545" height="4.545" rx="4"/><rect x="67.427" y="91.668" width="4.545" height="4.545" rx="4"/><rect x="121.968" y="91.668" width="4.545" height="4.545" rx="4"/><rect x="128.028" y="91.668" width="4.545" height="4.545" rx="4"/><rect x="134.087" y="91.668" width="4.545" height="4.545" rx="4"/><rect x="146.208" y="91.668" width="4.545" height="4.545" rx="4"/><rect x="158.327" y="91.668" width="4.545" height="4.545" rx="4"/><rect x="164.387" y="91.668" width="4.545" height="4.545" rx="4"/><rect x="170.447" y="91.668" width="4.545" height="4.545" rx="4"/><rect x="176.508" y="91.668" width="4.545" height="4.545" rx="4"/><rect x="182.567" y="91.668" width="4.545" height="4.545" rx="4"/><rect x="188.627" y="91.668" width="4.545" height="4.545" rx="4"/><rect x="194.688" y="91.668" width="4.545" height="4.545" rx="4"/><rect x=".767" y="97.728" width="4.545" height="4.545" rx="4"/><rect x="12.887" y="97.728" width="4.545" height="4.545" rx="4"/><rect x="25.008" y="97.728" width="4.545" height="4.545" rx="4"/><rect x="31.067" y="97.728" width="4.545" height="4.545" rx="4"/><rect x="37.127" y="97.728" width="4.545" height="4.545" rx="4"/><rect x="73.488" y="97.728" width="4.545" height="4.545" rx="4"/><rect x="152.268" y="97.728" width="4.545" height="4.545" rx="4"/><rect x="164.387" y="97.728" width="4.545" height="4.545" rx="4"/><rect x="170.447" y="97.728" width="4.545" height="4.545" rx="4"/><rect x="188.627" y="97.728" width="4.545" height="4.545" rx="4"/><rect x="194.688" y="97.728" width="4.545" height="4.545" rx="4"/><rect x=".767" y="103.787" width="4.545" height="4.545" rx="4"/><rect x="6.827" y="103.787" width="4.545" height="4.545" rx="4"/><rect x="18.948" y="103.787" width="4.545" height="4.545" rx="4"/><rect x="43.188" y="103.787" width="4.545" height="4.545" rx="4"/><rect x="73.488" y="103.787" width="4.545" height="4.545" rx="4"/><rect x="121.968" y="103.787" width="4.545" height="4.545" rx="4"/><rect x="140.148" y="103.787" width="4.545" height="4.545" rx="4"/><rect x="146.208" y="103.787" width="4.545" height="4.545" rx="4"/><rect x="158.327" y="103.787" width="4.545" height="4.545" rx="4"/><rect x="164.387" y="103.787" width="4.545" height="4.545" rx="4"/><rect x="188.627" y="103.787" width="4.545" height="4.545" rx="4"/><rect x="194.688" y="103.787" width="4.545" height="4.545" rx="4"/><rect x="12.887" y="109.847" width="4.545" height="4.545" rx="4"/><rect x="18.948" y="109.847" width="4.545" height="4.545" rx="4"/><rect x="31.067" y="109.847" width="4.545" height="4.545" rx="4"/><rect x="37.127" y="109.847" width="4.545" height="4.545" rx="4"/><rect x="49.248" y="109.847" width="4.545" height="4.545" rx="4"/><rect x="61.367" y="109.847" width="4.545" height="4.545" rx="4"/><rect x="67.427" y="109.847" width="4.545" height="4.545" rx="4"/><rect x="73.488" y="109.847" width="4.545" height="4.545" rx="4"/><rect x="121.968" y="109.847" width="4.545" height="4.545" rx="4"/><rect x="134.087" y="109.847" width="4.545" height="4.545" rx="4"/><rect x="182.567" y="109.847" width="4.545" height="4.545" rx="4"/><rect x="188.627" y="109.847" width="4.545" height="4.545" rx="4"/><rect x=".767" y="115.907" width="4.545" height="4.545" rx="4"/><rect x="12.887" y="115.907" width="4.545" height="4.545" rx="4"/><rect x="25.008" y="115.907" width="4.545" height="4.545" rx="4"/><rect x="67.427" y="115.907" width="4.545" height="4.545" rx="4"/><rect x="73.488" y="115.907" width="4.545" height="4.545" rx="4"/><rect x="121.968" y="115.907" width="4.545" height="4.545" rx="4"/><rect x="128.028" y="115.907" width="4.545" height="4.545" rx="4"/><rect x="134.087" y="115.907" width="4.545" height="4.545" rx="4"/><rect x="140.148" y="115.907" width="4.545" height="4.545" rx="4"/><rect x="146.208" y="115.907" width="4.545" height="4.545" rx="4"/><rect x="152.268" y="115.907" width="4.545" height="4.545" rx="4"/><rect x="158.327" y="115.907" width="4.545" height="4.545" rx="4"/><rect x="176.508" y="115.907" width="4.545" height="4.545" rx="4"/><rect x="182.567" y="115.907" width="4.545" height="4.545" rx="4"/><rect x="188.627" y="115.907" width="4.545" height="4.545" rx="4"/><rect x=".767" y="121.968" width="4.545" height="4.545" rx="4"/><rect x="6.827" y="121.968" width="4.545" height="4.545" rx="4"/><rect x="12.887" y="121.968" width="4.545" height="4.545" rx="4"/><rect x="18.948" y="121.968" width="4.545" height="4.545" rx="4"/><rect x="25.008" y="121.968" width="4.545" height="4.545" rx="4"/><rect x="31.067" y="121.968" width="4.545" height="4.545" rx="4"/><rect x="37.127" y="121.968" width="4.545" height="4.545" rx="4"/><rect x="43.188" y="121.968" width="4.545" height="4.545" rx="4"/><rect x="49.248" y="121.968" width="4.545" height="4.545" rx="4"/><rect x="55.307" y="121.968" width="4.545" height="4.545" rx="4"/><rect x="73.488" y="121.968" width="4.545" height="4.545" rx="4"/><rect x="121.968" y="121.968" width="4.545" height="4.545" rx="4"/><rect x="134.087" y="121.968" width="4.545" height="4.545" rx="4"/><rect x="146.208" y="121.968" width="4.545" height="4.545" rx="4"/><rect x="152.268" y="121.968" width="4.545" height="4.545" rx="4"/><rect x="164.387" y="121.968" width="4.545" height="4.545" rx="4"/><rect x="170.447" y="121.968" width="4.545" height="4.545" rx="4"/><rect x="176.508" y="121.968" width="4.545" height="4.545" rx="4"/><rect x=".767" y="128.028" width="4.545" height="4.545" rx="4"/><rect x="18.948" y="128.028" width="4.545" height="4.545" rx="4"/><rect x="146.208" y="128.028" width="4.545" height="4.545" rx="4"/><rect x="158.327" y="128.028" width="4.545" height="4.545" rx="4"/><rect x="176.508" y="128.028" width="4.545" height="4.545" rx="4"/><rect x="182.567" y="128.028" width="4.545" height="4.545" rx="4"/><rect x="194.688" y="128.028" width="4.545" height="4.545" rx="4"/><rect x=".767" y="134.087" width="4.545" height="4.545" rx="4"/><rect x="31.067" y="134.087" width="4.545" height="4.545" rx="4"/><rect x="37.127" y="134.087" width="4.545" height="4.545" rx="4"/><rect x="67.427" y="134.087" width="4.545" height="4.545" rx="4"/><rect x="79.548" y="134.087" width="4.545" height="4.545" rx="4"/><rect x="85.607" y="134.087" width="4.545" height="4.545" rx="4"/><rect x="91.668" y="134.087" width="4.545" height="4.545" rx="4"/><rect x="103.787" y="134.087" width="4.545" height="4.545" rx="4"/><rect x="109.847" y="134.087" width="4.545" height="4.545" rx="4"/><rect x="121.968" y="134.087" width="4.545" height="4.545" rx="4"/><rect x="134.087" y="134.087" width="4.545" height="4.545" rx="4"/><rect x="176.508" y="134.087" width="4.545" height="4.545" rx="4"/><rect x="182.567" y="134.087" width="4.545" height="4.545" rx="4"/><rect x="188.627" y="134.087" width="4.545" height="4.545" rx="4"/><rect x=".767" y="140.148" width="4.545" height="4.545" rx="4"/><rect x="12.887" y="140.148" width="4.545" height="4.545" rx="4"/><rect x="18.948" y="140.148" width="4.545" height="4.545" rx="4"/><rect x="25.008" y="140.148" width="4.545" height="4.545" rx="4"/><rect x="31.067" y="140.148" width="4.545" height="4.545" rx="4"/><rect x="43.188" y="140.148" width="4.545" height="4.545" rx="4"/><rect x="49.248" y="140.148" width="4.545" height="4.545" rx="4"/><rect x="61.367" y="140.148" width="4.545" height="4.545" rx="4"/><rect x="67.427" y="140.148" width="4.545" height="4.545" rx="4"/><rect x="79.548" y="140.148" width="4.545" height="4.545" rx="4"/><rect x="91.668" y="140.148" width="4.545" height="4.545" rx="4"/><rect x="121.968" y="140.148" width="4.545" height="4.545" rx="4"/><rect x="128.028" y="140.148" width="4.545" height="4.545" rx="4"/><rect x="134.087" y="140.148" width="4.545" height="4.545" rx="4"/><rect x="140.148" y="140.148" width="4.545" height="4.545" rx="4"/><rect x="146.208" y="140.148" width="4.545" height="4.545" rx="4"/><rect x="164.387" y="140.148" width="4.545" height="4.545" rx="4"/><rect x="170.447" y="140.148" width="4.545" height="4.545" rx="4"/><rect x="176.508" y="140.148" width="4.545" height="4.545" rx="4"/><rect x="182.567" y="140.148" width="4.545" height="4.545" rx="4"/><rect x="194.688" y="140.148" width="4.545" height="4.545" rx="4"/><rect x=".767" y="146.208" width="4.545" height="4.545" rx="4"/><rect x="12.887" y="146.208" width="4.545" height="4.545" rx="4"/><rect x="37.127" y="146.208" width="4.545" height="4.545" rx="4"/><rect x="43.188" y="146.208" width="4.545" height="4.545" rx="4"/><rect x="61.367" y="146.208" width="4.545" height="4.545" rx="4"/><rect x="73.488" y="146.208" width="4.545" height="4.545" rx="4"/><rect x="79.548" y="146.208" width="4.545" height="4.545" rx="4"/><rect x="85.607" y="146.208" width="4.545" height="4.545" rx="4"/><rect x="91.668" y="146.208" width="4.545" height="4.545" rx="4"/><rect x="97.728" y="146.208" width="4.545" height="4.545" rx="4"/><rect x="103.787" y="146.208" width="4.545" height="4.545" rx="4"/><rect x="134.087" y="146.208" width="4.545" height="4.545" rx="4"/><rect x="140.148" y="146.208" width="4.545" height="4.545" rx="4"/><rect x="146.208" y="146.208" width="4.545" height="4.545" rx="4"/><rect x="152.268" y="146.208" width="4.545" height="4.545" rx="4"/><rect x="158.327" y="146.208" width="4.545" height="4.545" rx="4"/><rect x="164.387" y="146.208" width="4.545" height="4.545" rx="4"/><rect x="170.447" y="146.208" width="4.545" height="4.545" rx="4"/><rect x="176.508" y="146.208" width="4.545" height="4.545" rx="4"/><rect x="188.627" y="146.208" width="4.545" height="4.545" rx="4"/><rect x="49.248" y="152.268" width="4.545" height="4.545" rx="4"/><rect x="55.307" y="152.268" width="4.545" height="4.545" rx="4"/><rect x="61.367" y="152.268" width="4.545" height="4.545" rx="4"/><rect x="73.488" y="152.268" width="4.545" height="4.545" rx="4"/><rect x="97.728" y="152.268" width="4.545" height="4.545" rx="4"/><rect x="115.907" y="152.268" width="4.545" height="4.545" rx="4"/><rect x="146.208" y="152.268" width="4.545" height="4.545" rx="4"/><rect x="170.447" y="152.268" width="4.545" height="4.545" rx="4"/><rect x="176.508" y="152.268" width="4.545" height="4.545" rx="4"/><rect x="182.567" y="152.268" width="4.545" height="4.545" rx="4"/><rect x="194.688" y="152.268" width="4.545" height="4.545" rx="4"/><rect x="55.307" y="158.327" width="4.545" height="4.545" rx="4"/><rect x="61.367" y="158.327" width="4.545" height="4.545" rx="4"/><rect x="73.488" y="158.327" width="4.545" height="4.545" rx="4"/><rect x="85.607" y="158.327" width="4.545" height="4.545" rx="4"/><rect x="91.668" y="158.327" width="4.545" height="4.545" rx="4"/><rect x="103.787" y="158.327" width="4.545" height="4.545" rx="4"/><rect x="109.847" y="158.327" width="4.545" height="4.545" rx="4"/><rect x="115.907" y="158.327" width="4.545" height="4.545" rx="4"/><rect x="134.087" y="158.327" width="4.545" height="4.545" rx="4"/><rect x="140.148" y="158.327" width="4.545" height="4.545" rx="4"/><rect x="146.208" y="158.327" width="4.545" height="4.545" rx="4"/><rect x="158.327" y="158.327" width="4.545" height="4.545" rx="4"/><rect x="170.447" y="158.327" width="4.545" height="4.545" rx="4"/><rect x="176.508" y="158.327" width="4.545" height="4.545" rx="4"/><rect x="182.567" y="158.327" width="4.545" height="4.545" rx="4"/><rect x="188.627" y="158.327" width="4.545" height="4.545" rx="4"/><rect x="55.307" y="164.387" width="4.545" height="4.545" rx="4"/><rect x="67.427" y="164.387" width="4.545" height="4.545" rx="4"/><rect x="79.548" y="164.387" width="4.545" height="4.545" rx="4"/><rect x="85.607" y="164.387" width="4.545" height="4.545" rx="4"/><rect x="97.728" y="164.387" width="4.545" height="4.545" rx="4"/><rect x="109.847" y="164.387" width="4.545" height="4.545" rx="4"/><rect x="115.907" y="164.387" width="4.545" height="4.545" rx="4"/><rect x="121.968" y="164.387" width="4.545" height="4.545" rx="4"/><rect x="140.148" y="164.387" width="4.545" height="4.545" rx="4"/><rect x="146.208" y="164.387" width="4.545" height="4.545" rx="4"/><rect x="170.447" y="164.387" width="4.545" height="4.545" rx="4"/><rect x="176.508" y="164.387" width="4.545" height="4.545" rx="4"/><rect x="182.567" y="164.387" width="4.545" height="4.545" rx="4"/><rect x="188.627" y="164.387" width="4.545" height="4.545" rx="4"/><rect x="194.688" y="164.387" width="4.545" height="4.545" rx="4"/><rect x="49.248" y="170.447" width="4.545" height="4.545" rx="4"/><rect x="55.307" y="170.447" width="4.545" height="4.545" rx="4"/><rect x="73.488" y="170.447" width="4.545" height="4.545" rx="4"/><rect x="79.548" y="170.447" width="4.545" height="4.545" rx="4"/><rect x="85.607" y="170.447" width="4.545" height="4.545" rx="4"/><rect x="91.668" y="170.447" width="4.545" height="4.545" rx="4"/><rect x="109.847" y="170.447" width="4.545" height="4.545" rx="4"/><rect x="128.028" y="170.447" width="4.545" height="4.545" rx="4"/><rect x="134.087" y="170.447" width="4.545" height="4.545" rx="4"/><rect x="146.208" y="170.447" width="4.545" height="4.545" rx="4"/><rect x="152.268" y="170.447" width="4.545" height="4.545" rx="4"/><rect x="158.327" y="170.447" width="4.545" height="4.545" rx="4"/><rect x="164.387" y="170.447" width="4.545" height="4.545" rx="4"/><rect x="170.447" y="170.447" width="4.545" height="4.545" rx="4"/><rect x="188.627" y="170.447" width="4.545" height="4.545" rx="4"/><rect x="194.688" y="170.447" width="4.545" height="4.545" rx="4"/><rect x="49.248" y="176.508" width="4.545" height="4.545" rx="4"/><rect x="61.367" y="176.508" width="4.545" height="4.545" rx="4"/><rect x="67.427" y="176.508" width="4.545" height="4.545" rx="4"/><rect x="73.488" y="176.508" width="4.545" height="4.545" rx="4"/><rect x="79.548" y="176.508" width="4.545" height="4.545" rx="4"/><rect x="109.847" y="176.508" width="4.545" height="4.545" rx="4"/><rect x="115.907" y="176.508" width="4.545" height="4.545" rx="4"/><rect x="121.968" y="176.508" width="4.545" height="4.545" rx="4"/><rect x="140.148" y="176.508" width="4.545" height="4.545" rx="4"/><rect x="152.268" y="176.508" width="4.545" height="4.545" rx="4"/><rect x="170.447" y="176.508" width="4.545" height="4.545" rx="4"/><rect x="176.508" y="176.508" width="4.545" height="4.545" rx="4"/><rect x="188.627" y="176.508" width="4.545" height="4.545" rx="4"/><rect x="49.248" y="182.567" width="4.545" height="4.545" rx="4"/><rect x="61.367" y="182.567" width="4.545" height="4.545" rx="4"/><rect x="67.427" y="182.567" width="4.545" height="4.545" rx="4"/><rect x="85.607" y="182.567" width="4.545" height="4.545" rx="4"/><rect x="91.668" y="182.567" width="4.545" height="4.545" rx="4"/><rect x="97.728" y="182.567" width="4.545" height="4.545" rx="4"/><rect x="103.787" y="182.567" width="4.545" height="4.545" rx="4"/><rect x="109.847" y="182.567" width="4.545" height="4.545" rx="4"/><rect x="121.968" y="182.567" width="4.545" height="4.545" rx="4"/><rect x="128.028" y="182.567" width="4.545" height="4.545" rx="4"/><rect x="146.208" y="182.567" width="4.545" height="4.545" rx="4"/><rect x="152.268" y="182.567" width="4.545" height="4.545" rx="4"/><rect x="158.327" y="182.567" width="4.545" height="4.545" rx="4"/><rect x="55.307" y="188.627" width="4.545" height="4.545" rx="4"/><rect x="73.488" y="188.627" width="4.545" height="4.545" rx="4"/><rect x="79.548" y="188.627" width="4.545" height="4.545" rx="4"/><rect x="85.607" y="188.627" width="4.545" height="4.545" rx="4"/><rect x="103.787" y="188.627" width="4.545" height="4.545" rx="4"/><rect x="109.847" y="188.627" width="4.545" height="4.545" rx="4"/><rect x="115.907" y="188.627" width="4.545" height="4.545" rx="4"/><rect x="134.087" y="188.627" width="4.545" height="4.545" rx="4"/><rect x="152.268" y="188.627" width="4.545" height="4.545" rx="4"/><rect x="164.387" y="188.627" width="4.545" height="4.545" rx="4"/><rect x="176.508" y="188.627" width="4.545" height="4.545" rx="4"/><rect x="182.567" y="188.627" width="4.545" height="4.545" rx="4"/><rect x="61.367" y="194.688" width="4.545" height="4.545" rx="4"/><rect x="67.427" y="194.688" width="4.545" height="4.545" rx="4"/><rect x="73.488" y="194.688" width="4.545" height="4.545" rx="4"/><rect x="85.607" y="194.688" width="4.545" height="4.545" rx="4"/><rect x="103.787" y="194.688" width="4.545" height="4.545" rx="4"/><rect x="115.907" y="194.688" width="4.545" height="4.545" rx="4"/><rect x="121.968" y="194.688" width="4.545" height="4.545" rx="4"/><rect x="140.148" y="194.688" width="4.545" height="4.545" rx="4"/><rect x="146.208" y="194.688" width="4.545" height="4.545" rx="4"/><rect x="152.268" y="194.688" width="4.545" height="4.545" rx="4"/><rect x="188.627" y="194.688" width="4.545" height="4.545" rx="4"/></g><g shape-rendering="geometricPrecision" transform="matrix(.6 0 0 .6 4 4)" fill="currentColor"><path d="M9.09 0h24.24a9.09 9.09 0 019.09 9.09v24.24a9.09 9.09 0 01-9.09 9.09H9.09A9.09 9.09 0 010 33.33V9.09A9.09 9.09 0 019.09 0zm0 6.06h24.24a3.03 3.03 0 013.03 3.03v24.24a3.03 3.03 0 01-3.03 3.03H9.09a3.03 3.03 0 01-3.03-3.03V9.09a3.03 3.03 0 013.03-3.03zM166.67 0h24.24A9.09 9.09 0 01200 9.09v24.24a9.09 9.09 0 01-9.09 9.09h-24.24a9.09 9.09 0 01-9.09-9.09V9.09A9.09 9.09 0 01166.67 0zm0 6.06h24.24a3.03 3.03 0 013.03 3.03v24.24a3.03 3.03 0 01-3.03 3.03h-24.24a3.03 3.03 0 01-3.03-3.03V9.09a3.03 3.03 0 013.03-3.03zM9.09 157.58h24.24a9.09 9.09 0 019.09 9.09v24.24a9.09 9.09 0 01-9.09 9.09H9.09A9.09 9.09 0 010 190.91v-24.24a9.09 9.09 0 019.09-9.09zm0 6.06h24.24a3.03 3.03 0 013.03 3.03v24.24a3.03 3.03 0 01-3.03 3.03H9.09a3.03 3.03 0 01-3.03-3.03v-24.24a3.03 3.03 0 013.03-3.03z" fill-rule="evenodd"/><rect x="12.12" y="12.12" width="18.18" height="18.18" rx="3.03"/><rect x="169.7" y="12.12" width="18.18" height="18.18" rx="3.03"/><rect x="12.12" y="169.7" width="18.18" height="18.18" rx="3.03"/></g></svg>